<svg xmlns="http://www.w3.org/2000/svg" viewBox="0 0 32 32" width="32" height="32">
  <!-- Sun -->
  <circle cx="13" cy="11" r="6" fill="#FFB800"/>
  <!-- Sun rays -->
  <g stroke="#FFB800" stroke-width="1.8" stroke-linecap="round">
    <line x1="13" y1="2" x2="13" y2="4"/>
    <line x1="13" y1="18" x2="13" y2="20"/>
    <line x1="4" y1="11" x2="6" y2="11"/>
    <line x1="20" y1="11" x2="22" y2="11"/>
    <line x1="6.6" y1="4.6" x2="8" y2="6"/>
    <line x1="18" y1="16" x2="19.4" y2="17.4"/>
    <line x1="19.4" y1="4.6" x2="18" y2="6"/>
    <line x1="8" y1="16" x2="6.6" y2="17.4"/>
  </g>
  <!-- Cloud -->
  <path d="M10 28c-3.3 0-6-2.3-6-5.2 0-2.6 2-4.8 4.5-5.2C9.4 14.6 12.5 13 16 13c4.6 0 8.3 3.1 8.9 7.2C27.1 20.7 29 22.9 29 25.7c0 3.3-2.7 6-6 6H10z" fill="#E8E8E8" stroke="#CCCCCC" stroke-width="0.8"/>
</svg>
